<svg xmlns="http://www.w3.org/2000/svg" xmlns:xlink="http://www.w3.org/1999/xlink" width="500" zoomAndPan="magnify" viewBox="0 0 375 374.999991" height="500" preserveAspectRatio="xMidYMid meet" version="1.0"><defs><g/><clipPath id="501437b250"><path d="M 293.785156 263.304688 L 330.480469 263.304688 L 330.480469 299.996094 L 293.785156 299.996094 Z M 293.785156 263.304688 " clip-rule="nonzero"/></clipPath><clipPath id="2923d8dcab"><path d="M 312.132812 263.304688 C 302 263.304688 293.785156 271.515625 293.785156 281.648438 C 293.785156 291.78125 302 299.996094 312.132812 299.996094 C 322.265625 299.996094 330.480469 291.78125 330.480469 281.648438 C 330.480469 271.515625 322.265625 263.304688 312.132812 263.304688 Z M 312.132812 263.304688 " clip-rule="nonzero"/></clipPath></defs><rect x="-37.5" width="450" fill="#ffffff" y="-37.499999" height="449.999989" fill-opacity="1"/><rect x="-37.5" width="450" fill="#e6e6dd" y="-37.499999" height="449.999989" fill-opacity="1"/><g clip-path="url(#501437b250)"><g clip-path="url(#2923d8dcab)"><path fill="#000000" d="M 293.785156 263.304688 L 330.480469 263.304688 L 330.480469 299.996094 L 293.785156 299.996094 Z M 293.785156 263.304688 " fill-opacity="1" fill-rule="nonzero"/></g></g><g fill="#000000" fill-opacity="1"><g transform="translate(60.96292, 299.11758)"><g><path d="M 10.5 -237.4375 L 83.46875 -237.4375 C 95.082031 -237.4375 104.066406 -234.804688 110.421875 -229.546875 C 116.773438 -224.296875 121.054688 -216.925781 123.265625 -207.4375 C 125.484375 -197.945312 126.59375 -185.832031 126.59375 -171.09375 C 126.59375 -157.644531 124.84375 -147.140625 121.34375 -139.578125 C 117.84375 -132.023438 111.757812 -126.773438 103.09375 -123.828125 C 110.28125 -122.359375 115.484375 -118.765625 118.703125 -113.046875 C 121.929688 -107.335938 123.546875 -99.597656 123.546875 -89.828125 L 123 0 L 76.5625 0 L 76.5625 -92.875 C 76.5625 -99.507812 75.269531 -103.742188 72.6875 -105.578125 C 70.113281 -107.421875 65.414062 -108.34375 58.59375 -108.34375 L 58.59375 0 L 10.5 0 Z M 70.203125 -149.53125 C 76.835938 -149.53125 80.15625 -156.71875 80.15625 -171.09375 C 80.15625 -177.363281 79.878906 -182.0625 79.328125 -185.1875 C 78.773438 -188.320312 77.757812 -190.488281 76.28125 -191.6875 C 74.8125 -192.882812 72.695312 -193.484375 69.9375 -193.484375 L 58.875 -193.484375 L 58.875 -149.53125 Z M 70.203125 -149.53125 "/></g></g></g><g fill="#000000" fill-opacity="1"><g transform="translate(175.939719, 299.11758)"><g><path d="M 10.5 -237.4375 L 74.90625 -237.4375 C 92.226562 -237.4375 104.804688 -233.195312 112.640625 -224.71875 C 120.472656 -216.238281 124.390625 -202.414062 124.390625 -183.25 L 124.390625 -172.75 C 124.390625 -150.082031 116.28125 -136.539062 100.0625 -132.125 C 110.007812 -129.539062 117.007812 -123.550781 121.0625 -114.15625 C 125.113281 -104.757812 127.140625 -92.320312 127.140625 -76.84375 C 127.140625 -51.59375 123.363281 -32.472656 115.8125 -19.484375 C 108.257812 -6.492188 94.625 0 74.90625 0 L 10.5 0 Z M 66.609375 -148.15625 C 70.660156 -148.15625 73.425781 -149.675781 74.90625 -152.71875 C 76.382812 -155.757812 77.125 -160.039062 77.125 -165.5625 L 77.125 -189.34375 C 77.125 -197.082031 73.710938 -200.953125 66.890625 -200.953125 L 56.9375 -200.953125 L 56.9375 -148.15625 Z M 61.640625 -41.734375 C 73.984375 -41.734375 80.15625 -47.628906 80.15625 -59.421875 L 80.15625 -89 C 80.15625 -96.1875 79.09375 -101.625 76.96875 -105.3125 C 74.851562 -109 71.125 -110.84375 65.78125 -110.84375 L 56.9375 -110.84375 L 56.9375 -42.015625 Z M 61.640625 -41.734375 "/></g></g></g></svg>